<svg width="240" height="165" viewBox="0 0 240 165" fill="none" xmlns="http://www.w3.org/2000/svg">
<path d="M103.5 19.5C88.3659 22.3647 47.6828 34.2259 33.8027 41.1659C24.2109 45.9619 13.0744 51.4889 6.47876 60.5988C1.14938 67.9597 1.4975 74.5129 2.38569 83.0553C4.8505 106.761 21.7336 121.662 41.4357 133.205C76.6038 153.808 117.77 161.512 158.107 162.704C180.909 163.378 211.193 163.274 226.693 142.349C235.864 129.969 238.822 107.41 237.608 93.0852C235.996 74.0727 234.555 62.0605 223.5 46.4998C211.42 29.4962 193.077 15.8751 173.572 8.6666C156.799 2.46783 134.124 1.25344 116.417 2.10295C107.511 2.53022 89.9567 5.54325 80.3533 8.15036C52.943 15.5917 84.7533 7.32757 70.3972 12.7965" stroke="#dc2626" stroke-width="5" stroke-linecap="round"/>
</svg>
